<svg xmlns="http://www.w3.org/2000/svg" viewBox="0 0 162.68 130.72"><defs><style>.cls-1{fill:#1b4581;}.cls-2{fill:#ee963d;}.cls-3{fill:#fff;}.cls-4,.cls-5{fill:#009444;}.cls-5{font-size:9.67px;font-family:MyriadPro-Regular, Myriad Pro;}.cls-6{letter-spacing:-0.01em;}.cls-7{letter-spacing:0em;}.cls-8{fill:none;}</style></defs><title>Asset 3</title><g id="Layer_2" data-name="Layer 2"><g id="Layer_1-2" data-name="Layer 1"><path class="cls-1" d="M72.32,33.69c.7,4.31,3.22,7.81,7.6,7.94,4.17-.38,6.44-4.22,7.07-8.4a55.71,55.71,0,0,1,17.69,6.37l-.05,9.3,24.05-8.81-49.12-27-51.42,26,27,9.83,0-9.65A69.1,69.1,0,0,1,72.32,33.69Z"/><polygon class="cls-1" points="113.8 42.79 115.01 64.9 116.21 66.1 117.87 40.38 113.8 42.79"/><polygon class="cls-2" points="115.35 66.71 117 71.8 122.36 71.8 118.03 74.95 119.68 80.04 115.35 76.89 111.02 80.04 112.67 74.95 108.34 71.8 113.7 71.8 115.35 66.71"/><path class="cls-1" d="M71.31,36c-9.48,1.83-14.1,4.69-14.1,4.69l.12,24.8c14.56.12,21.84,16,21.84,16V42.86A8.21,8.21,0,0,1,71.31,36Z"/><path class="cls-1" d="M88,35.9a8.2,8.2,0,0,1-7.38,6.93V81.52s7.28-15.91,21.84-16l.12-24.8S97.85,37.73,88,35.9Z"/><path class="cls-3" d="M70.87,52.85s-.6,6.79,1.81,7.83,9.8-3.62,9.8-3.62-6.41,6.52-6,11.13a15.91,15.91,0,0,0,3.67,8.16s-8.6-3.51-11-11.56C67.58,58.71,70.87,52.85,70.87,52.85Z"/><circle class="cls-3" cx="75.58" cy="55.64" r="2.63"/><circle class="cls-3" cx="85.93" cy="45.94" r="3.01"/><path class="cls-3" d="M78,47.37s7.78,5.15,11.23,4.11,2.36-9.43,2.36-9.43,4.49,8.11,1.26,16.16S80.57,70.16,80.57,70.16s5.78-5.11,3.94-12.77C83.29,52.3,78,47.37,78,47.37Z"/><circle class="cls-3" cx="79.66" cy="34.24" r="8.57"/><path class="cls-4" d="M25,99.58l-1.86,6.93h4.57l1.87-6.93h6l-4.65,17.34h-6l2-7.53H22.33l-2,7.53H14.27l4.62-17.34Z"/><path class="cls-4" d="M50.19,99.63l2,17.31H45.66l-.56-4.6H38.05l-3.34,4.6H31.8L44.11,99.63Zm-6.08,3.9-4,5.91h4.77Z"/><path class="cls-4" d="M59.1,99.6H72.16a5,5,0,0,1,1.57.25,1.93,1.93,0,0,1,1,.75,2.34,2.34,0,0,1,.21.55,4.53,4.53,0,0,1,.08.73,8.68,8.68,0,0,1-.25,1.38l-.94,3.56c-.06.16-.11.38-.15.51a1.83,1.83,0,0,1-.21.53,2.34,2.34,0,0,1-.27.49,5.42,5.42,0,0,1-.41.43,1.26,1.26,0,0,1-.37.27,2.29,2.29,0,0,1-.48.19,1.64,1.64,0,0,1-.56.12,3.91,3.91,0,0,1-.7,0l1.45,7.51H65.35l-.87-7.48H62.54l-2,7.48H54.48Zm5.36,2.86-1.09,4.09h3.8a.66.66,0,0,0,.29,0,.9.9,0,0,0,.26-.2.71.71,0,0,0,.15-.24,3,3,0,0,0,.12-.36l.7-2.64a.88.88,0,0,0,0-.29.47.47,0,0,0-.1-.2.38.38,0,0,0-.19-.09c-.1,0-.2,0-.27,0Z"/><path class="cls-4" d="M82.66,123.41,74.45,89.22h7.41l5.23,22.4L91.84,104h2.52Z"/><path class="cls-4" d="M108.42,99.63l2,17.31h-6.49l-.56-4.6h-7l-3.35,4.6H90l12.3-17.31Zm-6.08,3.9-4,5.91h4.78Z"/><path class="cls-4" d="M117.34,99.6h13a5,5,0,0,1,1.57.25,1.93,1.93,0,0,1,.95.75,2.33,2.33,0,0,1,.22.55,6,6,0,0,1,.07.73,9.8,9.8,0,0,1-.24,1.38l-1,3.56a4.43,4.43,0,0,0-.14.51,1.86,1.86,0,0,1-.22.53,2.34,2.34,0,0,1-.27.49,4.07,4.07,0,0,1-.41.43,1.36,1.36,0,0,1-.36.27,2.62,2.62,0,0,1-.49.19,1.58,1.58,0,0,1-.55.12,4,4,0,0,1-.71,0l1.46,7.51h-6.74l-.87-7.48h-1.94l-2,7.48h-6.05Zm5.35,2.86-1.09,4.09h3.8a.66.66,0,0,0,.29,0,1,1,0,0,0,.27-.2.72.72,0,0,0,.14-.24,1.89,1.89,0,0,0,.12-.36l.71-2.64a1.17,1.17,0,0,0,0-.29.59.59,0,0,0-.09-.2.46.46,0,0,0-.2-.09c-.09,0-.2,0-.26,0Z"/><path class="cls-4" d="M137.17,99.58h12.55a3.69,3.69,0,0,1,.68,0c.25,0,.45.11.68.14a2.73,2.73,0,0,1,.72.37,1.72,1.72,0,0,1,.56.58,1.9,1.9,0,0,1,.27.63,2.24,2.24,0,0,1,.14.8c0,.23,0,.49-.05.72a4,4,0,0,1-.17.85l-2.39,9c-.1.29-.2.59-.3.85s-.24.52-.33.75-.36.54-.51.77a5.44,5.44,0,0,1-1.26,1.12,4.11,4.11,0,0,1-.73.36,4.45,4.45,0,0,1-1,.27,5,5,0,0,1-.94.07H132.55Zm5.36,2.86-3.13,11.67h3.54a.62.62,0,0,0,.29-.1.54.54,0,0,0,.31-.24.93.93,0,0,0,.22-.29.74.74,0,0,0,.17-.31l2.69-10a.71.71,0,0,0,0-.25.4.4,0,0,0-.13-.21,1,1,0,0,0-.19-.15.57.57,0,0,0-.27-.07Z"/><text class="cls-5" transform="translate(18.83 93.98)">GI<tspan class="cls-6" x="8.56" y="0">Á</tspan><tspan class="cls-7" x="14.34" y="0">O DỤC</tspan></text><rect class="cls-8" width="162.68" height="130.72"/></g></g></svg>