<svg xmlns="http://www.w3.org/2000/svg" viewBox="0 0 138.5 110.32"><defs><style>.cls-1{fill:#1b4581;}.cls-2{fill:#ee963d;}.cls-3{fill:#fff;}.cls-4,.cls-6,.cls-7{fill:#009444;}.cls-5,.cls-6,.cls-7{isolation:isolate;}.cls-6,.cls-7{font-size:9.67px;font-family:MyriadPro-Regular, Myriad Pro;}.cls-7{letter-spacing:-0.01em;}</style></defs><title>logo2</title><g id="Layer_2" data-name="Layer 2"><g id="Layer_1-2" data-name="Layer 1"><path class="cls-1" d="M58.05,20.6c.7,4.31,3.22,7.81,7.6,7.94,4.17-.38,6.44-4.22,7.07-8.4a55.83,55.83,0,0,1,17.69,6.37l0,9.3,24-8.81L65.29,0,13.87,26l27,9.83V26.18A69.22,69.22,0,0,1,58.05,20.6Z"/><polygon class="cls-1" points="99.53 29.7 100.74 51.81 101.94 53.01 103.6 27.29 99.53 29.7"/><polygon class="cls-2" points="101.08 53.62 102.73 58.71 108.09 58.71 103.76 61.86 105.41 66.95 101.08 63.8 96.75 66.95 98.4 61.86 94.07 58.71 99.43 58.71 101.08 53.62"/><path class="cls-1" d="M57,22.91c-9.48,1.83-14.1,4.69-14.1,4.69l.12,24.8c14.56.12,21.84,16,21.84,16V29.77A8.21,8.21,0,0,1,57,22.91Z"/><path class="cls-1" d="M73.73,22.81a8.2,8.2,0,0,1-7.38,6.93V68.43s7.28-15.91,21.84-16l.12-24.8S83.58,24.64,73.73,22.81Z"/><path class="cls-3" d="M56.6,39.76s-.6,6.79,1.81,7.83S68.21,44,68.21,44s-6.41,6.52-6,11.13a15.89,15.89,0,0,0,3.67,8.16s-8.6-3.51-11-11.56C53.31,45.62,56.6,39.76,56.6,39.76Z"/><circle class="cls-3" cx="61.31" cy="42.55" r="2.63"/><circle class="cls-3" cx="71.66" cy="32.85" r="3.01"/><path class="cls-3" d="M63.73,34.28S71.51,39.43,75,38.39,77.32,29,77.32,29s4.49,8.11,1.26,16.16-12.28,12-12.28,12S72.08,52,70.24,44.3C69,39.21,63.73,34.28,63.73,34.28Z"/><circle class="cls-3" cx="65.39" cy="21.15" r="8.57"/><path class="cls-4" d="M10.73,86.49,8.87,93.42h4.57l1.87-6.93h6l-4.65,17.34h-6l2-7.53H8.06l-2,7.53H0L4.62,86.49Z"/><path class="cls-4" d="M35.92,86.54l2,17.31H31.39l-.56-4.6h-7l-3.34,4.6H17.53L29.84,86.54Zm-6.08,3.9-4,5.91h4.77Z"/><path class="cls-4" d="M44.83,86.51H57.89a5,5,0,0,1,1.57.25,1.93,1.93,0,0,1,1,.75,2.6,2.6,0,0,1,.21.55,4.41,4.41,0,0,1,.08.73,9.06,9.06,0,0,1-.25,1.38l-.94,3.56c-.06.16-.11.38-.15.51a1.63,1.63,0,0,1-.21.53,2.34,2.34,0,0,1-.27.49c-.13.15-.27.29-.41.43a1.41,1.41,0,0,1-.37.27,2.53,2.53,0,0,1-.48.19,1.81,1.81,0,0,1-.56.12,4.09,4.09,0,0,1-.7,0l1.45,7.51H51.08l-.87-7.48H48.27l-2,7.48H40.21Zm5.36,2.86L49.1,93.46h3.8a.71.71,0,0,0,.29,0,.86.86,0,0,0,.26-.2A.61.61,0,0,0,53.6,93a2.53,2.53,0,0,0,.12-.36l.7-2.64a.71.71,0,0,0,0-.29.54.54,0,0,0-.1-.2.34.34,0,0,0-.19-.09h-.27Z"/><path class="cls-4" d="M68.39,110.32,60.18,76.13h7.41l5.23,22.4,4.75-7.62h2.52Z"/><path class="cls-4" d="M94.15,86.54l2,17.31H89.66l-.56-4.6h-7l-3.35,4.6h-3L88,86.54Zm-6.08,3.9-4,5.91h4.78Z"/><path class="cls-4" d="M103.07,86.51h13a5,5,0,0,1,1.57.25,1.9,1.9,0,0,1,1,.75,2.18,2.18,0,0,1,.22.55,6,6,0,0,1,.07.73,10.47,10.47,0,0,1-.24,1.38l-1,3.56a4.84,4.84,0,0,0-.14.51,1.91,1.91,0,0,1-.22.53,2.34,2.34,0,0,1-.27.49,4.17,4.17,0,0,1-.41.43,1.36,1.36,0,0,1-.36.27,2.92,2.92,0,0,1-.49.19,1.69,1.69,0,0,1-.55.12,4.21,4.21,0,0,1-.71,0l1.46,7.51h-6.74l-.87-7.48H106.4l-2,7.48H98.35Zm5.35,2.86-1.09,4.09h3.8a.71.71,0,0,0,.29,0,1.05,1.05,0,0,0,.27-.2.72.72,0,0,0,.14-.24,2.53,2.53,0,0,0,.12-.36l.71-2.64a1.41,1.41,0,0,0,0-.29.72.72,0,0,0-.09-.2.4.4,0,0,0-.2-.09h-.26Z"/><path class="cls-4" d="M122.9,86.49h12.55a3.86,3.86,0,0,1,.68,0,4.81,4.81,0,0,1,.68.14,2.73,2.73,0,0,1,.72.37,1.82,1.82,0,0,1,.56.58,1.85,1.85,0,0,1,.27.63,2.21,2.21,0,0,1,.14.8,3.49,3.49,0,0,1-.05.72,4.13,4.13,0,0,1-.17.85l-2.39,9c-.1.29-.2.59-.3.85s-.24.52-.33.75a5.69,5.69,0,0,1-.51.77,5.39,5.39,0,0,1-1.26,1.12,5,5,0,0,1-.73.36,4.35,4.35,0,0,1-1,.27,5,5,0,0,1-.94.07H118.28Zm5.36,2.86L125.13,101h3.54a.63.63,0,0,0,.29-.1.53.53,0,0,0,.31-.24.89.89,0,0,0,.22-.29.73.73,0,0,0,.17-.31l2.69-10a1,1,0,0,0,0-.25.42.42,0,0,0-.13-.21.9.9,0,0,0-.19-.15.52.52,0,0,0-.27-.07Z"/><g class="cls-5"><text class="cls-6" transform="translate(4.56 80.89)">GI</text><text class="cls-7" transform="translate(13.12 80.89)">Á</text><text class="cls-6" transform="translate(18.9 80.89)">O DỤC</text></g></g></g></svg>