<svg xmlns="http://www.w3.org/2000/svg" viewBox="0 0 288 108.77"><defs><style>.cls-1{fill:none;}.cls-2{fill:#1b4581;}.cls-3{fill:#ee963d;}.cls-4{fill:#fff;}.cls-5,.cls-6{fill:#009444;}.cls-6{font-size:10.96px;font-family:MyriadPro-Regular, Myriad Pro;}.cls-7{letter-spacing:-0.02em;}</style></defs><title>Asset 1</title><g id="Layer_2" data-name="Layer 2"><g id="Layer_1-2" data-name="Layer 1"><rect class="cls-1" width="288" height="108.77"/><path class="cls-2" d="M55.54,37.71c.58,3.59,2.68,6.5,6.34,6.62,3.47-.32,5.36-3.52,5.88-7A46.41,46.41,0,0,1,82.5,42.63l0,7.75,20-7.34L61.58,20.54,18.74,42.22l22.53,8.2,0-8A57.23,57.23,0,0,1,55.54,37.71Z"/><polygon class="cls-2" points="90.1 45.29 91.11 63.71 92.11 64.71 93.5 43.28 90.1 45.29"/><polygon class="cls-3" points="91.39 65.22 92.77 69.46 97.23 69.46 93.62 72.08 95 76.32 91.39 73.7 87.78 76.32 89.16 72.08 85.55 69.46 90.01 69.46 91.39 65.22"/><path class="cls-2" d="M54.7,39.63C46.8,41.16,43,43.54,43,43.54l.1,20.66c12.13.1,18.19,13.36,18.19,13.36V45.35A6.85,6.85,0,0,1,54.7,39.63Z"/><path class="cls-2" d="M68.64,39.56a6.84,6.84,0,0,1-6.15,5.77V77.56S68.56,64.3,80.69,64.2l.1-20.66S76.81,41.08,68.64,39.56Z"/><path class="cls-4" d="M54.34,53.67s-.51,5.66,1.5,6.53,8.17-3,8.17-3-5.34,5.43-5,9.27a13.24,13.24,0,0,0,3.05,6.8S54.93,70.33,53,63.62C51.6,58.55,54.34,53.67,54.34,53.67Z"/><circle class="cls-4" cx="58.26" cy="56" r="2.19"/><circle class="cls-4" cx="66.89" cy="47.92" r="2.51"/><path class="cls-4" d="M60.27,49.1s6.48,4.29,9.36,3.43,2-7.85,2-7.85,3.74,6.75,1,13.46-10.23,10-10.23,10,4.82-4.25,3.29-10.63C64.68,53.21,60.27,49.1,60.27,49.1Z"/><circle class="cls-4" cx="61.66" cy="38.17" r="7.14"/><path class="cls-5" d="M114.2,56.19,112.09,64h5.18l2.12-7.84h6.83L121,75.83h-6.83l2.28-8.53h-5.19l-2.28,8.53h-6.85l5.24-19.64Z"/><path class="cls-5" d="M142.76,56.24,145,75.86h-7.35L137,70.65h-8l-3.79,5.21h-3.29l13.94-19.62Zm-6.88,4.42-4.53,6.69h5.4Z"/><path class="cls-5" d="M152.86,56.22h14.79a6,6,0,0,1,1.78.27,2.23,2.23,0,0,1,1.07.85,2.44,2.44,0,0,1,.25.63,5.69,5.69,0,0,1,.08.82,10.15,10.15,0,0,1-.27,1.57l-1.07,4a6,6,0,0,0-.17.58,2.19,2.19,0,0,1-.25.6,2.26,2.26,0,0,1-.3.55,5.16,5.16,0,0,1-.46.49,1.36,1.36,0,0,1-.41.3,3.71,3.71,0,0,1-.55.22,1.82,1.82,0,0,1-.63.14,5.19,5.19,0,0,1-.8.06l1.65,8.5h-7.63l-1-8.48h-2.19l-2.28,8.48h-6.86Zm6.06,3.23-1.23,4.64H162c.15,0,.29,0,.33-.06a1,1,0,0,0,.3-.22.91.91,0,0,0,.16-.27,2.73,2.73,0,0,0,.14-.41l.8-3a1.1,1.1,0,0,0,.05-.33c0-.07-.07-.15-.11-.22a.42.42,0,0,0-.22-.11c-.11,0-.23,0-.3,0Z"/><path class="cls-5" d="M179.54,83.18l-9.29-38.72h8.39l5.92,25.36,5.38-8.64h2.85Z"/><path class="cls-5" d="M208.72,56.24l2.22,19.62h-7.35L203,70.65h-8l-3.79,5.21H187.9l13.94-19.62Zm-6.88,4.42-4.53,6.69h5.4Z"/><path class="cls-5" d="M218.82,56.22h14.79a6,6,0,0,1,1.78.27,2.23,2.23,0,0,1,1.07.85,2.44,2.44,0,0,1,.25.63,5.69,5.69,0,0,1,.08.82,10.15,10.15,0,0,1-.27,1.57l-1.07,4a6,6,0,0,0-.17.58,2.51,2.51,0,0,1-.24.6,2.69,2.69,0,0,1-.31.55,5.16,5.16,0,0,1-.46.49,1.36,1.36,0,0,1-.41.3,3.32,3.32,0,0,1-.55.22,1.82,1.82,0,0,1-.63.14,5.1,5.1,0,0,1-.8.06l1.65,8.5H225.9l-1-8.48h-2.19l-2.28,8.48h-6.86Zm6.07,3.23-1.24,4.64H228c.15,0,.29,0,.33-.06a1,1,0,0,0,.3-.22.91.91,0,0,0,.16-.27,2.73,2.73,0,0,0,.14-.41l.8-3a1.1,1.1,0,0,0,.05-.33c0-.07-.07-.15-.11-.22a.42.42,0,0,0-.22-.11c-.11,0-.23,0-.3,0Z"/><path class="cls-5" d="M241.29,56.19H255.5a4.67,4.67,0,0,1,.77.05c.29,0,.51.13.77.17a3.31,3.31,0,0,1,.82.41,2.08,2.08,0,0,1,.63.66,2.31,2.31,0,0,1,.31.71,2.38,2.38,0,0,1,.16.91c0,.26,0,.56,0,.82a6.34,6.34,0,0,1-.2,1L256,71.08c-.11.33-.22.68-.33,1s-.28.59-.39.85a7.89,7.89,0,0,1-.57.88,4,4,0,0,1-.69.72,3.9,3.9,0,0,1-.74.54,5,5,0,0,1-1.92.72,5.51,5.51,0,0,1-1.07.08H236.05Zm6.07,3.24-3.54,13.22h4a.8.8,0,0,0,.33-.11.68.68,0,0,0,.36-.28,1.43,1.43,0,0,0,.25-.33.87.87,0,0,0,.19-.35l3-11.39a.62.62,0,0,0,0-.27.46.46,0,0,0-.14-.25,1.4,1.4,0,0,0-.22-.16.61.61,0,0,0-.3-.08Z"/><text class="cls-6" transform="translate(107.7 52.3)">GI<tspan class="cls-7" x="9.7" y="0">Á</tspan><tspan x="16.24" y="0">O DỤC</tspan></text></g></g></svg>